<?xml version="1.0" encoding="utf-8"?>
<!DOCTYPE svg PUBLIC "-//W3C//DTD SVG 20010904//EN" "http://www.w3.org/TR/2001/REC-SVG-20010904/DTD/svg10.dtd">
<svg version="1.0" xmlns="http://www.w3.org/2000/svg" width="85pt" height="85pt" viewBox="20 -23 602 419"  style="" preserveAspectRatio="xMidYMid meet">
<g fill="#F2AA4CFF" stroke="#F2AA4CFF">
<path d="M 448.816 202.750 C 448.568 204.910 447.910 205.568 445.750 205.816 L 443.000 206.133 443.000 219.066 L 443.000 232.000 426.500 232.000 L 410.000 232.000 410.000 235.000 C 410.000 237.667 409.667 238.000 407.000 238.000 C 404.333 238.000 404.000 238.333 404.000 241.000 C 404.000 243.533 403.611 244.000 401.500 244.000 C 399.310 244.000 399.000 244.433 399.000 247.500 C 399.000 250.567 398.690 251.000 396.500 251.000 L 394.000 251.000 394.000 273.500 L 394.000 296.000 396.500 296.000 C 398.690 296.000 399.000 296.433 399.000 299.500 C 399.000 302.567 399.310 303.000 401.500 303.000 C 403.611 303.000 404.000 303.467 404.000 306.000 C 404.000 308.667 404.333 309.000 407.000 309.000 C 409.667 309.000 410.000 309.333 410.000 312.000 L 410.000 315.000 438.500 315.000 L 467.000 315.000 467.000 312.500 C 467.000 310.500 467.500 310.000 469.500 310.000 L 472.000 310.000 472.000 258.066 L 472.000 206.133 469.250 205.816 C 467.090 205.568 466.432 204.910 466.184 202.750 L 465.867 200.000 457.500 200.000 L 449.133 200.000 448.816 202.750 M 444.000 273.500 L 444.000 290.000 435.500 290.000 C 427.100 290.000 427.000 289.971 427.000 287.500 C 427.000 285.500 426.500 285.000 424.500 285.000 L 422.000 285.000 422.000 273.500 L 422.000 262.000 424.500 262.000 C 426.500 262.000 427.000 261.500 427.000 259.500 C 427.000 257.029 427.100 257.000 435.500 257.000 L 444.000 257.000 444.000 273.500 "/></g>
<g fill="#F2AA4CFF" stroke="#F2AA4CFF">
<path d="M 364.000 52.500 C 364.000 54.500 363.500 55.000 361.500 55.000 L 359.000 55.000 359.000 68.000 L 359.000 81.000 342.000 81.000 L 325.000 81.000 325.000 84.000 C 325.000 86.667 324.667 87.000 322.000 87.000 C 319.333 87.000 319.000 87.333 319.000 90.000 C 319.000 92.533 318.611 93.000 316.500 93.000 C 314.310 93.000 314.000 93.433 314.000 96.500 C 314.000 99.567 313.690 100.000 311.500 100.000 L 309.000 100.000 309.000 122.500 L 309.000 145.000 311.500 145.000 C 313.690 145.000 314.000 145.433 314.000 148.500 C 314.000 151.567 314.310 152.000 316.500 152.000 C 318.611 152.000 319.000 152.467 319.000 155.000 C 319.000 157.667 319.333 158.000 322.000 158.000 C 324.667 158.000 325.000 158.333 325.000 161.000 L 325.000 164.000 353.500 164.000 L 382.000 164.000 382.000 161.500 C 382.000 159.500 382.500 159.000 384.500 159.000 L 387.000 159.000 387.000 107.066 L 387.000 55.133 384.250 54.816 C 382.281 54.590 381.409 53.861 381.180 52.250 C 380.878 50.120 380.412 50.000 372.430 50.000 C 364.105 50.000 364.000 50.031 364.000 52.500 M 359.000 122.500 L 359.000 139.000 350.500 139.000 C 342.100 139.000 342.000 138.971 342.000 136.500 C 342.000 134.500 341.500 134.000 339.500 134.000 L 337.000 134.000 337.000 122.500 L 337.000 111.000 339.500 111.000 C 341.500 111.000 342.000 110.500 342.000 108.500 C 342.000 106.029 342.100 106.000 350.500 106.000 L 359.000 106.000 359.000 122.500 "/></g>
<g fill="#F2AA4CFF" stroke="#F2AA4CFF">
<path d="M 238.000 77.000 C 238.000 79.667 237.667 80.000 235.000 80.000 C 232.333 80.000 232.000 80.333 232.000 83.000 C 232.000 85.533 231.611 86.000 229.500 86.000 C 227.310 86.000 227.000 86.433 227.000 89.500 C 227.000 92.722 226.762 93.000 224.000 93.000 L 221.000 93.000 221.000 118.934 L 221.000 144.867 223.750 145.184 C 226.041 145.447 226.552 146.042 226.813 148.750 C 227.073 151.442 227.545 152.000 229.563 152.000 C 231.604 152.000 232.000 152.487 232.000 155.000 C 232.000 157.667 232.333 158.000 235.000 158.000 C 237.667 158.000 238.000 158.333 238.000 161.000 L 238.000 164.000 260.500 164.000 L 283.000 164.000 283.000 161.000 C 283.000 158.333 283.333 158.000 286.000 158.000 C 288.667 158.000 289.000 157.667 289.000 155.000 C 289.000 152.467 289.389 152.000 291.500 152.000 C 293.690 152.000 294.000 151.567 294.000 148.500 C 294.000 145.433 294.310 145.000 296.500 145.000 L 299.000 145.000 299.000 119.000 L 299.000 93.000 296.500 93.000 C 294.310 93.000 294.000 92.567 294.000 89.500 C 294.000 86.433 293.690 86.000 291.500 86.000 C 289.389 86.000 289.000 85.533 289.000 83.000 C 289.000 80.333 288.667 80.000 286.000 80.000 C 283.333 80.000 283.000 79.667 283.000 77.000 L 283.000 74.000 260.500 74.000 L 238.000 74.000 238.000 77.000 M 266.000 101.500 C 266.000 103.611 266.467 104.000 269.000 104.000 L 272.000 104.000 272.000 119.000 L 272.000 134.000 269.000 134.000 C 266.467 134.000 266.000 134.389 266.000 136.500 C 266.000 138.864 265.700 139.000 260.500 139.000 C 255.300 139.000 255.000 138.864 255.000 136.500 C 255.000 134.389 254.533 134.000 252.000 134.000 L 249.000 134.000 249.000 119.000 L 249.000 104.000 252.000 104.000 C 254.533 104.000 255.000 103.611 255.000 101.500 C 255.000 99.136 255.300 99.000 260.500 99.000 C 265.700 99.000 266.000 99.136 266.000 101.500 "/></g>
<g fill="#F2AA4CFF" stroke="#F2AA4CFF">
<path d="M 324.000 227.500 C 324.000 229.611 323.533 230.000 321.000 230.000 C 318.333 230.000 318.000 230.333 318.000 233.000 C 318.000 235.652 317.659 236.000 315.066 236.000 C 312.610 236.000 312.081 236.447 311.816 238.750 C 311.568 240.910 310.910 241.568 308.750 241.816 L 306.000 242.133 306.000 270.066 L 306.000 298.000 309.000 298.000 C 311.667 298.000 312.000 298.333 312.000 301.000 C 312.000 303.667 312.333 304.000 315.000 304.000 C 317.667 304.000 318.000 304.333 318.000 307.000 C 318.000 309.667 318.333 310.000 321.000 310.000 C 323.533 310.000 324.000 310.389 324.000 312.500 L 324.000 315.000 350.000 315.000 L 376.000 315.000 376.000 312.500 C 376.000 310.500 376.500 310.000 378.500 310.000 C 380.910 310.000 381.000 309.767 381.000 303.500 C 381.000 297.233 380.910 297.000 378.500 297.000 C 376.389 297.000 376.000 296.533 376.000 294.000 L 376.000 291.000 357.500 291.000 L 339.000 291.000 339.000 288.500 C 339.000 286.389 338.533 286.000 336.000 286.000 C 333.467 286.000 333.000 285.611 333.000 283.500 L 333.000 281.000 356.000 281.000 L 379.000 281.000 379.000 278.500 C 379.000 276.500 379.500 276.000 381.500 276.000 L 384.000 276.000 384.000 259.000 L 384.000 242.000 381.000 242.000 C 378.333 242.000 378.000 241.667 378.000 239.000 C 378.000 236.333 377.667 236.000 375.000 236.000 C 372.333 236.000 372.000 235.667 372.000 233.000 C 372.000 230.333 371.667 230.000 369.000 230.000 C 366.467 230.000 366.000 229.611 366.000 227.500 L 366.000 225.000 345.000 225.000 L 324.000 225.000 324.000 227.500 M 352.000 250.500 C 352.000 252.500 352.500 253.000 354.500 253.000 C 356.611 253.000 357.000 253.467 357.000 256.000 L 357.000 259.000 345.000 259.000 L 333.000 259.000 333.000 256.000 C 333.000 253.467 333.389 253.000 335.500 253.000 C 337.258 253.000 338.000 252.456 338.000 251.167 C 338.000 248.349 338.846 248.000 345.667 248.000 C 351.756 248.000 352.000 248.096 352.000 250.500 "/></g>
<g fill="#F2AA4CFF" stroke="#F2AA4CFF">
<path d="M 415.000 76.500 C 415.000 78.611 414.533 79.000 412.000 79.000 C 409.333 79.000 409.000 79.333 409.000 82.000 C 409.000 84.667 408.667 85.000 406.000 85.000 C 403.333 85.000 403.000 85.333 403.000 88.000 C 403.000 90.667 402.667 91.000 400.000 91.000 L 397.000 91.000 397.000 119.000 L 397.000 147.000 400.000 147.000 C 402.667 147.000 403.000 147.333 403.000 150.000 C 403.000 152.667 403.333 153.000 406.000 153.000 C 408.667 153.000 409.000 153.333 409.000 156.000 C 409.000 158.667 409.333 159.000 412.000 159.000 C 414.533 159.000 415.000 159.389 415.000 161.500 L 415.000 164.000 441.000 164.000 L 467.000 164.000 467.000 161.500 C 467.000 159.500 467.500 159.000 469.500 159.000 C 471.910 159.000 472.000 158.767 472.000 152.500 C 472.000 146.233 471.910 146.000 469.500 146.000 C 467.389 146.000 467.000 145.533 467.000 143.000 L 467.000 140.000 448.500 140.000 L 430.000 140.000 430.000 137.500 C 430.000 135.389 429.533 135.000 427.000 135.000 C 424.467 135.000 424.000 134.611 424.000 132.500 L 424.000 130.000 447.000 130.000 L 470.000 130.000 470.000 127.500 C 470.000 125.500 470.500 125.000 472.500 125.000 L 475.000 125.000 475.000 108.000 L 475.000 91.000 472.000 91.000 C 469.333 91.000 469.000 90.667 469.000 88.000 C 469.000 85.333 468.667 85.000 466.000 85.000 C 463.333 85.000 463.000 84.667 463.000 82.000 C 463.000 79.333 462.667 79.000 460.000 79.000 C 457.467 79.000 457.000 78.611 457.000 76.500 L 457.000 74.000 436.000 74.000 L 415.000 74.000 415.000 76.500 M 443.000 99.500 C 443.000 101.500 443.500 102.000 445.500 102.000 C 447.611 102.000 448.000 102.467 448.000 105.000 L 448.000 108.000 436.000 108.000 L 424.000 108.000 424.000 105.000 C 424.000 102.333 424.333 102.000 427.000 102.000 C 429.533 102.000 430.000 101.611 430.000 99.500 C 430.000 97.090 430.233 97.000 436.500 97.000 C 442.767 97.000 443.000 97.090 443.000 99.500 "/></g>
<g fill="#F2AA4CFF" stroke="#F2AA4CFF">
<path d="M 236.000 227.500 C 236.000 229.611 235.533 230.000 233.000 230.000 C 230.333 230.000 230.000 230.333 230.000 233.000 C 230.000 235.652 229.659 236.000 227.066 236.000 C 224.610 236.000 224.081 236.447 223.816 238.750 C 223.568 240.910 222.910 241.568 220.750 241.816 L 218.000 242.133 218.000 270.000 L 218.000 297.867 220.750 298.184 C 222.893 298.430 223.569 299.094 223.811 301.189 C 224.051 303.268 224.732 303.949 226.811 304.189 C 228.906 304.431 229.570 305.107 229.816 307.250 C 230.081 309.553 230.610 310.000 233.066 310.000 C 235.529 310.000 236.000 310.401 236.000 312.500 L 236.000 315.000 262.000 315.000 L 288.000 315.000 288.000 312.500 C 288.000 310.500 288.500 310.000 290.500 310.000 C 292.910 310.000 293.000 309.767 293.000 303.500 C 293.000 297.233 292.910 297.000 290.500 297.000 C 288.389 297.000 288.000 296.533 288.000 294.000 L 288.000 291.000 269.500 291.000 L 251.000 291.000 251.000 288.500 C 251.000 286.389 250.533 286.000 248.000 286.000 C 245.467 286.000 245.000 285.611 245.000 283.500 L 245.000 281.000 268.000 281.000 L 291.000 281.000 291.000 278.500 C 291.000 276.500 291.500 276.000 293.500 276.000 L 296.000 276.000 296.000 259.000 L 296.000 242.000 293.000 242.000 C 290.333 242.000 290.000 241.667 290.000 239.000 C 290.000 236.333 289.667 236.000 287.000 236.000 C 284.333 236.000 284.000 235.667 284.000 233.000 C 284.000 230.238 283.722 230.000 280.500 230.000 C 277.433 230.000 277.000 229.690 277.000 227.500 L 277.000 225.000 256.500 225.000 L 236.000 225.000 236.000 227.500 M 263.820 250.750 C 264.051 252.379 264.810 253.000 266.570 253.000 C 268.603 253.000 269.000 253.490 269.000 256.000 L 269.000 259.000 257.000 259.000 L 245.000 259.000 245.000 256.000 C 245.000 253.467 245.389 253.000 247.500 253.000 C 249.512 253.000 250.000 252.503 250.000 250.454 C 250.000 247.949 250.107 247.913 256.750 248.204 C 262.883 248.473 263.529 248.706 263.820 250.750 "/></g>
<g fill="#F2AA4CFF" stroke="#F2AA4CFF">
<path d="M 137.000 205.000 C 137.000 207.762 136.722 208.000 133.500 208.000 L 130.000 208.000 130.000 258.500 L 130.000 309.000 133.500 309.000 C 136.722 309.000 137.000 309.238 137.000 312.000 L 137.000 315.000 145.500 315.000 L 154.000 315.000 154.000 312.000 C 154.000 309.333 154.333 309.000 157.000 309.000 L 160.000 309.000 160.000 291.000 L 160.000 273.000 180.500 273.000 L 201.000 273.000 201.000 270.000 C 201.000 267.238 201.278 267.000 204.500 267.000 L 208.000 267.000 208.000 259.500 L 208.000 252.000 204.500 252.000 C 201.278 252.000 201.000 251.762 201.000 249.000 L 201.000 246.000 180.500 246.000 L 160.000 246.000 160.000 237.000 L 160.000 228.000 182.000 228.000 L 204.000 228.000 204.000 225.000 C 204.000 222.238 204.278 222.000 207.500 222.000 L 211.000 222.000 211.000 215.000 L 211.000 208.000 207.500 208.000 C 204.278 208.000 204.000 207.762 204.000 205.000 L 204.000 202.000 170.500 202.000 L 137.000 202.000 137.000 205.000 "/></g>
<g fill="#F2AA4CFF" stroke="#F2AA4CFF">
<path d="M 149.000 54.000 C 149.000 56.833 148.778 57.000 145.000 57.000 C 141.095 57.000 141.000 57.083 141.000 60.500 C 141.000 63.833 140.833 64.000 137.500 64.000 C 134.083 64.000 134.000 64.095 134.000 68.000 C 134.000 71.905 133.917 72.000 130.500 72.000 L 127.000 72.000 127.000 107.500 L 127.000 143.000 130.500 143.000 C 133.917 143.000 134.000 143.095 134.000 147.000 C 134.000 150.905 134.083 151.000 137.500 151.000 C 140.833 151.000 141.000 151.167 141.000 154.500 C 141.000 157.917 141.095 158.000 145.000 158.000 C 148.778 158.000 149.000 158.167 149.000 161.000 L 149.000 164.000 177.000 164.000 L 205.000 164.000 205.000 161.000 C 205.000 158.238 205.278 158.000 208.500 158.000 L 212.000 158.000 212.000 151.000 L 212.000 144.000 208.500 144.000 C 205.167 144.000 205.000 143.833 205.000 140.500 L 205.000 137.000 184.500 137.000 L 164.000 137.000 164.000 134.000 C 164.000 131.238 163.722 131.000 160.500 131.000 L 157.000 131.000 157.000 107.500 L 157.000 84.000 160.437 84.000 C 163.583 84.000 163.900 83.725 164.187 80.750 L 164.500 77.500 184.750 77.229 L 205.000 76.959 205.000 74.479 C 205.000 72.312 205.441 72.000 208.500 72.000 L 212.000 72.000 212.000 64.500 L 212.000 57.000 208.500 57.000 C 205.278 57.000 205.000 56.762 205.000 54.000 L 205.000 51.000 177.000 51.000 L 149.000 51.000 149.000 54.000 "/></g>
<g fill="#DB924907" stroke="#DB924907">
<path d="M 317.188 232.500 C 317.032 234.569 316.483 235.000 314.000 235.000 C 311.348 235.000 311.000 235.341 311.000 237.934 C 311.000 240.390 310.553 240.919 308.250 241.184 L 305.500 241.500 305.500 270.000 L 305.500 298.500 308.250 298.816 C 310.553 299.081 311.000 299.610 311.000 302.066 C 311.000 304.659 311.348 305.000 314.000 305.000 C 316.483 305.000 317.032 305.431 317.188 307.500 C 317.344 309.593 317.385 309.552 317.438 307.250 C 317.489 304.989 317.021 304.445 314.811 304.189 C 312.732 303.949 312.051 303.268 311.811 301.189 C 311.569 299.094 310.893 298.430 308.750 298.184 L 306.000 297.867 306.000 270.000 L 306.000 242.133 308.750 241.816 C 310.893 241.570 311.569 240.906 311.811 238.811 C 312.051 236.732 312.732 236.051 314.811 235.811 C 317.021 235.555 317.489 235.011 317.438 232.750 C 317.385 230.448 317.344 230.407 317.188 232.500 "/></g>
<g fill="#F5AA4B33" stroke="#F5AA4B33">
<path d="M 133.200 67.437 C 133.020 70.534 132.679 70.904 129.750 71.187 L 126.500 71.500 126.507 107.750 L 126.513 144.000 126.757 108.063 L 127.000 72.127 130.250 71.813 C 133.294 71.520 133.497 71.262 133.450 67.750 C 133.404 64.278 133.385 64.255 133.200 67.437 "/></g>
<g fill="#F5AA4B33" stroke="#F5AA4B33">
<path d="M 136.667 201.667 C 136.300 202.033 136.000 203.355 136.000 204.603 C 136.000 206.415 135.344 206.955 132.750 207.277 C 129.550 207.674 129.558 207.682 133.250 207.840 C 136.782 207.991 137.000 207.826 137.000 205.013 L 137.000 202.027 170.750 201.750 L 204.500 201.472 170.917 201.236 C 152.446 201.106 137.033 201.300 136.667 201.667 "/></g>
<g fill="#DB924907" stroke="#DB924907">
<path d="M 204.194 225.000 L 204.000 228.000 182.000 228.000 L 160.000 228.000 160.206 237.250 L 160.411 246.500 160.744 237.769 L 161.077 229.039 182.789 228.769 L 204.500 228.500 204.444 225.250 C 204.394 222.273 204.373 222.252 204.194 225.000 "/></g>
<g fill="#DB924907" stroke="#DB924907">
<path d="M 217.452 242.264 C 217.185 242.959 217.087 255.897 217.233 271.014 L 217.500 298.500 220.250 298.438 C 222.552 298.385 222.593 298.344 220.500 298.188 L 218.000 298.000 218.000 270.066 L 218.000 242.133 220.750 241.716 L 223.500 241.300 220.719 241.150 C 219.189 241.067 217.719 241.569 217.452 242.264 "/></g>
<g fill="#F5AA4B33" stroke="#F5AA4B33">
<path d="M 396.234 119.250 L 396.468 148.500 396.749 119.815 L 397.030 91.130 399.765 90.715 C 402.292 90.331 402.253 90.288 399.250 90.150 L 396.000 90.000 396.234 119.250 "/></g>
<g fill="#F5AA4B33" stroke="#F5AA4B33">
<path d="M 205.194 161.000 L 205.000 164.000 177.000 164.242 L 149.000 164.483 177.250 164.492 L 205.500 164.500 205.444 161.250 C 205.394 158.273 205.373 158.252 205.194 161.000 "/></g>
<g fill="#F5AA4B33" stroke="#F5AA4B33">
<path d="M 176.750 50.741 L 205.000 51.031 205.194 54.016 C 205.370 56.709 205.394 56.683 205.444 53.750 L 205.500 50.500 177.000 50.476 L 148.500 50.452 176.750 50.741 "/></g>
<g fill="#F5AA4B33" stroke="#F5AA4B33">
<path d="M 467.667 159.667 C 467.300 160.033 467.000 161.158 467.000 162.167 C 467.000 163.891 465.458 164.014 441.000 164.241 L 415.000 164.482 441.250 164.491 C 467.499 164.500 467.500 164.500 467.812 162.310 C 468.025 160.811 468.970 159.992 470.812 159.710 L 473.500 159.300 470.917 159.150 C 469.496 159.067 468.033 159.300 467.667 159.667 "/></g>
<g fill="#DB924907" stroke="#DB924907">
<path d="M 299.241 119.000 L 299.000 145.000 296.500 145.188 C 294.407 145.344 294.448 145.385 296.750 145.438 L 299.500 145.500 299.491 119.250 L 299.482 93.000 299.241 119.000 "/></g>
<g fill="#FFBF4008" stroke="#FFBF4008">
<path d="M 288.179 313.000 C 288.006 314.937 287.186 315.008 262.000 315.241 L 236.000 315.482 262.250 315.491 L 288.500 315.500 288.429 313.250 C 288.377 311.627 288.307 311.557 288.179 313.000 "/></g>
<g fill="#DB924907" stroke="#DB924907">
<path d="M 333.136 283.750 C 333.252 286.080 333.338 286.159 333.703 284.269 C 334.132 282.049 334.251 282.036 356.817 281.749 L 379.500 281.461 356.250 281.230 L 333.000 281.000 333.136 283.750 "/></g>
<g fill="#DB924907" stroke="#DB924907">
<path d="M 308.471 122.749 L 308.500 145.500 311.250 145.438 C 313.499 145.386 313.548 145.341 311.519 145.188 L 309.038 145.000 308.740 122.499 L 308.442 99.999 308.471 122.749 "/></g>
<g fill="#F5AA4B33" stroke="#F5AA4B33">
<path d="M 237.404 162.000 L 237.500 164.500 260.250 164.490 L 283.000 164.479 260.566 164.240 C 238.177 164.000 238.132 163.996 237.720 161.750 C 237.361 159.792 237.320 159.825 237.404 162.000 "/></g>
<g fill="#F5AA4B33" stroke="#F5AA4B33">
<path d="M 472.750 90.720 C 474.967 91.127 475.003 91.380 475.236 108.066 L 475.473 125.000 475.486 107.750 L 475.500 90.500 473.000 90.404 C 470.825 90.320 470.792 90.361 472.750 90.720 "/></g>
<g fill="#F5AA4B33" stroke="#F5AA4B33">
<path d="M 245.404 256.000 L 245.500 258.500 257.250 258.481 L 269.000 258.462 257.566 258.231 C 246.583 258.009 246.117 257.912 245.720 255.750 C 245.361 253.792 245.320 253.825 245.404 256.000 "/></g>
<g fill="#F5AA4B33" stroke="#F5AA4B33">
<path d="M 337.444 122.500 C 337.499 133.246 337.552 133.498 339.750 133.429 C 341.273 133.380 341.365 133.299 340.034 133.179 C 338.235 133.015 338.039 132.083 337.728 122.250 L 337.388 111.500 337.444 122.500 "/></g>
<g fill="#F2AA4BEA" stroke="#F2AA4BEA">
<path d="M 372.250 49.723 C 380.080 50.041 381.019 50.284 381.179 52.039 C 381.298 53.353 381.381 53.258 381.429 51.750 C 381.497 49.583 381.169 49.498 372.500 49.434 L 363.500 49.369 372.250 49.723 "/></g>
<g fill="#DB924907" stroke="#DB924907">
<path d="M 399.689 147.714 C 401.191 147.993 401.976 148.966 402.189 150.811 C 402.431 152.906 403.107 153.570 405.250 153.816 C 407.345 154.057 408.045 154.713 408.188 156.566 C 408.331 158.435 408.390 158.361 408.438 156.250 C 408.489 153.989 408.021 153.445 405.811 153.189 C 403.732 152.949 403.051 152.268 402.811 150.189 C 402.570 148.103 401.940 147.478 400.000 147.404 C 397.950 147.324 397.894 147.380 399.689 147.714 "/></g>
<g fill="#DB924907" stroke="#DB924907">
<path d="M 259.687 99.705 C 264.123 100.043 264.919 100.419 265.187 102.300 C 265.438 104.065 266.142 104.489 268.750 104.444 C 271.531 104.397 271.577 104.361 269.070 104.194 C 266.866 104.048 266.060 103.442 265.820 101.750 C 265.534 99.742 264.908 99.490 260.000 99.405 L 254.500 99.309 259.687 99.705 "/></g>
<g fill="#DB924907" stroke="#DB924907">
<path d="M 250.393 249.419 C 250.073 250.252 250.043 251.511 250.327 252.217 C 250.610 252.923 250.878 252.488 250.921 251.250 C 250.994 249.175 251.468 249.000 257.000 249.000 C 261.593 249.000 263.039 249.352 263.167 250.500 C 263.258 251.325 263.371 251.213 263.417 250.250 C 263.486 248.790 262.460 248.451 257.237 248.202 C 252.370 247.970 250.845 248.242 250.393 249.419 "/></g>
<g fill="#DB924907" stroke="#DB924907">
<path d="M 469.206 145.712 C 471.793 146.106 471.927 146.417 472.260 152.812 L 472.608 159.500 472.804 152.250 L 473.000 145.000 469.750 145.150 C 466.790 145.286 466.742 145.336 469.206 145.712 "/></g>
<g fill="#F5AA4B33" stroke="#F5AA4B33">
<path d="M 293.221 303.000 C 293.010 309.685 292.887 310.008 290.500 310.188 C 288.407 310.344 288.448 310.385 290.750 310.438 L 293.500 310.500 293.471 303.250 L 293.441 296.000 293.221 303.000 "/></g>
<g fill="#DB924907" stroke="#DB924907">
<path d="M 378.750 296.656 C 380.793 297.095 381.020 297.778 381.221 304.070 L 381.441 311.000 381.471 303.750 C 381.499 296.718 381.425 296.495 379.000 296.336 C 376.797 296.192 376.767 296.230 378.750 296.656 "/></g>
<g fill="#DB924907" stroke="#DB924907">
<path d="M 375.000 235.563 C 377.524 236.037 378.000 236.592 378.000 239.063 C 378.000 241.741 378.287 241.987 381.250 241.850 C 384.186 241.715 384.240 241.661 381.811 241.290 C 379.764 240.977 379.047 240.236 378.811 238.189 C 378.552 235.949 377.958 235.458 375.250 235.250 C 372.046 235.004 372.042 235.008 375.000 235.563 "/></g>
<g fill="#DB924907" stroke="#DB924907">
<path d="M 160.250 130.691 C 163.579 131.072 164.022 131.451 164.194 134.060 C 164.362 136.599 164.396 136.557 164.444 133.750 C 164.498 130.635 164.334 130.495 160.500 130.381 L 156.500 130.262 160.250 130.691 "/></g>
<g fill="#DB924907" stroke="#DB924907">
<path d="M 164.168 80.687 C 164.020 83.488 163.608 83.922 160.750 84.277 C 157.600 84.667 157.618 84.685 161.310 84.840 L 165.121 85.000 164.728 81.250 C 164.362 77.744 164.325 77.707 164.168 80.687 "/></g>
<g fill="#F5AA4B33" stroke="#F5AA4B33">
<path d="M 294.160 89.250 C 294.005 92.875 294.108 92.995 297.250 92.850 C 300.188 92.715 300.242 92.661 297.809 92.289 C 295.646 91.959 295.039 91.252 294.719 88.689 C 294.336 85.624 294.314 85.645 294.160 89.250 "/></g>
<g fill="#DB924907" stroke="#DB924907">
<path d="M 229.188 232.500 C 229.036 234.520 228.424 235.037 226.000 235.194 C 223.252 235.373 223.273 235.394 226.250 235.444 C 229.157 235.494 229.493 235.210 229.438 232.750 C 229.385 230.448 229.344 230.407 229.188 232.500 "/></g>
<g fill="#F5AA4B33" stroke="#F5AA4B33">
<path d="M 294.194 149.000 C 294.037 151.424 293.520 152.036 291.500 152.188 C 289.407 152.344 289.448 152.385 291.750 152.438 C 294.210 152.493 294.494 152.157 294.444 149.250 C 294.394 146.273 294.373 146.252 294.194 149.000 "/></g>
<g fill="#F5AA4B33" stroke="#F5AA4B33">
<path d="M 463.404 82.000 C 463.486 84.146 463.960 84.492 466.750 84.444 C 469.539 84.397 469.584 84.361 467.066 84.194 C 464.892 84.050 464.026 83.418 463.720 81.750 C 463.361 79.792 463.320 79.825 463.404 82.000 "/></g>
<g fill="#DB924907" stroke="#DB924907">
<path d="M 226.750 304.720 C 228.282 305.001 229.060 305.910 229.188 307.566 C 229.331 309.435 229.390 309.361 229.438 307.250 C 229.489 304.991 229.053 304.483 227.000 304.404 C 224.825 304.320 224.792 304.361 226.750 304.720 "/></g>
<g fill="#F5AA4B33" stroke="#F5AA4B33">
<path d="M 237.188 76.500 C 237.046 78.392 236.392 79.046 234.500 79.188 C 232.407 79.344 232.448 79.385 234.750 79.438 C 237.113 79.491 237.491 79.113 237.438 76.750 C 237.385 74.448 237.344 74.407 237.188 76.500 "/></g>
<g fill="#F5AA4B33" stroke="#F5AA4B33">
<path d="M 376.136 312.750 C 376.248 315.014 376.348 315.113 376.698 313.311 C 376.943 312.048 378.048 310.943 379.311 310.698 C 381.113 310.348 381.014 310.248 378.750 310.136 C 376.354 310.018 376.018 310.354 376.136 312.750 "/></g>
</svg>
